# 3ds Max Wavefront OBJ Exporter v0.97b - (c)2007 guruware
# File Created: 07.05.2021 15:22:16

mtllib Color Spot 2.mtl

#
# object ColorSpot2
#

v  -0.0170 0.0084 0.4373
v  -0.0155 0.0084 0.3349
v  -0.0397 -0.0445 0.3371
v  -0.0406 -0.0445 0.4428
v  0.0205 0.0084 0.5123
v  0.0023 -0.0445 0.5284
v  0.0969 0.0084 0.5635
v  0.0885 -0.0445 0.5863
v  0.1908 0.0084 0.5738
v  0.1935 -0.0445 0.5980
v  -0.3201 0.0084 -0.1616
v  -0.2637 0.0084 -0.1946
v  -0.2711 -0.0445 -0.2178
v  -0.3371 -0.0445 -0.1789
v  -0.3828 -0.0445 -0.1040
v  -0.3599 0.0084 -0.0959
v  -0.3724 0.0084 -0.0051
v  -0.3966 -0.0445 -0.0034
v  -0.3536 0.0084 0.0632
v  -0.3750 -0.0445 0.0746
v  -0.3205 -0.0445 0.1388
v  -0.3053 0.0084 0.1199
v  -0.2310 0.0084 0.1595
v  -0.2388 -0.0445 0.1825
v  -0.1235 0.0084 -0.2058
v  -0.1288 -0.0445 -0.2295
v  -0.1316 -0.0445 0.2002
v  -0.1223 0.0084 0.1777
v  -0.0535 0.0084 -0.2323
v  -0.0649 -0.0445 -0.2537
v  0.0251 0.0084 -0.2886
v  0.0151 -0.0445 -0.3107
v  0.0968 0.0084 -0.3056
v  0.0961 -0.0445 -0.3298
v  0.1736 0.0084 -0.2922
v  0.1819 -0.0445 -0.3151
v  0.2372 0.0084 -0.2557
v  0.2529 -0.0445 -0.2742
v  0.2772 0.0084 -0.2075
v  0.2987 -0.0445 -0.2188
v  0.2996 0.0084 -0.1290
v  0.3238 -0.0445 -0.1306
v  0.2873 0.0084 -0.0460
v  0.3102 -0.0445 -0.0379
v  0.2157 0.0084 0.0770
v  0.2394 -0.0445 0.0823
v  -0.0555 -0.0445 0.2549
v  -0.0350 0.0084 0.2419
v  0.2272 0.0084 0.1795
v  0.2475 -0.0445 0.1662
v  0.3260 0.0084 0.2366
v  0.3420 -0.0445 0.2183
v  0.3691 0.0084 0.2940
v  0.3920 -0.0445 0.2859
v  0.3725 0.0084 0.3898
v  0.3966 -0.0445 0.3929
v  0.3453 0.0084 0.4790
v  0.3661 -0.0445 0.4915
v  0.2826 0.0084 0.5421
v  0.2956 -0.0445 0.5627
v  0.0447 0.0437 0.4231
v  0.0478 0.0443 0.3290
v  0.0681 0.0438 0.4705
v  0.1187 0.0438 0.5040
v  0.1838 0.0439 0.5109
v  -0.2756 0.0438 -0.1165
v  -0.2446 0.0438 -0.1343
v  -0.3002 0.0439 -0.0747
v  -0.3091 0.0439 -0.0093
v  -0.2976 0.0438 0.0336
v  -0.2655 0.0439 0.0705
v  -0.2106 0.0439 0.0995
v  -0.1096 0.0439 -0.1440
v  -0.0978 0.0440 0.1192
v  -0.0236 0.0439 -0.1764
v  0.0513 0.0438 -0.2309
v  0.0988 0.0438 -0.2423
v  0.1521 0.0439 -0.2326
v  0.1964 0.0439 -0.2073
v  0.2211 0.0438 -0.1780
v  0.2364 0.0438 -0.1249
v  0.2274 0.0440 -0.0670
v  0.1537 0.0440 0.0637
v  0.0181 0.0432 0.2078
v  0.1745 0.0429 0.2140
v  0.2839 0.0445 0.2844
v  0.3095 0.0435 0.3151
v  0.3096 0.0441 0.3816
v  0.2910 0.0437 0.4465
v  0.2489 0.0439 0.4885
v  0.0199 0.0218 -0.4755
v  0.0487 0.0294 -0.4663
v  0.0427 0.0443 -0.4983
v  0.0108 0.0294 -0.5042
v  0.0866 0.0294 -0.4663
v  0.0926 0.0443 -0.4983
v  0.1154 0.0218 -0.4755
v  0.1246 0.0294 -0.5042
v  0.0427 0.0443 -0.5481
v  0.0108 0.0294 -0.5422
v  0.0926 0.0443 -0.5481
v  0.1246 0.0294 -0.5422
v  0.0487 0.0294 -0.5801
v  0.0199 0.0218 -0.5709
v  0.0866 0.0294 -0.5801
v  0.1154 0.0218 -0.5709
v  0.0108 -0.0438 -0.4663
v  0.0427 -0.0438 -0.4484
v  0.0427 0.0028 -0.4484
v  0.0108 -0.0021 -0.4663
v  0.0926 -0.0438 -0.4484
v  0.0926 0.0028 -0.4484
v  0.1246 -0.0438 -0.4663
v  0.1246 -0.0021 -0.4663
v  0.1444 -0.0438 -0.4983
v  0.1444 0.0028 -0.4983
v  0.1444 -0.0438 -0.5481
v  0.1444 0.0028 -0.5481
v  0.1246 -0.0438 -0.5801
v  0.1246 -0.0021 -0.5801
v  0.0926 -0.0438 -0.5980
v  0.0926 0.0028 -0.5980
v  0.0427 -0.0438 -0.5980
v  0.0427 0.0028 -0.5980
v  0.0108 -0.0438 -0.5801
v  0.0108 -0.0021 -0.5801
v  -0.0099 -0.0438 -0.5481
v  -0.0099 0.0028 -0.5481
v  -0.0099 -0.0438 -0.4983
v  -0.0099 0.0028 -0.4983
# 130 vertices

vn -0.7348 0.6570 0.1684
vn -0.7251 0.6852 0.0695
vn -0.9057 0.4162 0.0804
vn -0.8854 0.4171 0.2050
vn -0.5673 0.6547 0.4996
vn -0.6815 0.4177 0.6009
vn -0.2589 0.6555 0.7094
vn -0.3121 0.4177 0.8533
vn 0.0837 0.6571 0.7491
vn 0.1005 0.4174 0.9032
vn -0.5295 0.6560 -0.5378
vn -0.2263 0.6578 -0.7184
vn -0.2745 0.4171 -0.8664
vn -0.6375 0.4175 -0.6475
vn -0.8565 0.4169 -0.3043
vn -0.7095 0.6585 -0.2511
vn -0.7505 0.6590 0.0498
vn -0.9068 0.4173 0.0603
vn -0.6653 0.6582 0.3523
vn -0.8031 0.4175 0.4251
vn -0.5703 0.4173 0.7075
vn -0.4707 0.6603 0.5852
vn -0.2411 0.6620 0.7096
vn -0.2921 0.4175 0.8605
vn -0.1578 0.6923 -0.7041
vn -0.1993 0.4168 -0.8869
vn -0.3490 0.4182 0.8386
vn -0.2772 0.7010 0.6571
vn -0.3418 0.6908 -0.6371
vn -0.4290 0.4167 -0.8014
vn -0.3108 0.6602 -0.6838
vn -0.3751 0.4175 -0.8276
vn -0.0229 0.6596 -0.7513
vn -0.0282 0.4176 -0.9082
vn 0.2548 0.6615 -0.7053
vn 0.3086 0.4171 -0.8549
vn 0.4833 0.6610 -0.5740
vn 0.5860 0.4171 -0.6947
vn 0.6656 0.6589 -0.3505
vn 0.8044 0.4175 -0.4227
vn 0.7510 0.6584 -0.0494
vn 0.9067 0.4176 -0.0598
vn 0.7102 0.6585 0.2489
vn 0.8570 0.4172 0.3025
vn 0.6911 0.7080 0.1455
vn 0.8870 0.4188 0.1945
vn -0.7620 0.4241 0.4894
vn -0.5853 0.7188 0.3751
vn 0.5724 0.7323 -0.3690
vn 0.7569 0.4266 -0.4950
vn 0.4984 0.6550 -0.5680
vn 0.5977 0.4159 -0.6854
vn 0.7140 0.6532 -0.2519
vn 0.8566 0.4175 -0.3032
vn 0.7438 0.6614 0.0970
vn 0.9023 0.4148 0.1175
vn 0.6473 0.6563 0.3877
vn 0.7792 0.4175 0.4674
vn 0.4011 0.6568 0.6385
vn 0.4836 0.4173 0.7694
vn -0.2817 0.9574 0.0631
vn -0.2316 0.9725 0.0231
vn -0.2192 0.9567 0.1914
vn -0.0977 0.9580 0.2696
vn 0.0321 0.9589 0.2819
vn -0.2027 0.9571 -0.2068
vn -0.0846 0.9582 -0.2734
vn -0.2633 0.9603 -0.0923
vn -0.2802 0.9597 0.0190
vn -0.2521 0.9585 0.1334
vn -0.1750 0.9600 0.2185
vn -0.0896 0.9610 0.2617
vn -0.0505 0.9729 -0.2258
vn -0.0852 0.9760 0.2002
vn -0.1099 0.9726 -0.2049
vn -0.1171 0.9596 -0.2559
vn -0.0082 0.9592 -0.2828
vn 0.0941 0.9608 -0.2608
vn 0.1776 0.9610 -0.2122
vn 0.2503 0.9590 -0.1328
vn 0.2846 0.9584 -0.0197
vn 0.2649 0.9601 0.0900
vn 0.1982 0.9793 0.0421
vn -0.1648 0.9805 0.1073
vn 0.1524 0.9829 -0.1031
vn 0.1866 0.9615 -0.2019
vn 0.2854 0.9536 -0.0955
vn 0.2726 0.9615 0.0343
vn 0.2483 0.9571 0.1493
vn 0.1516 0.9586 0.2410
vn 0.0000 -1.0000 -0.0000
vn -0.0000 -1.0000 -0.0000
vn 0.0000 -1.0000 0.0000
vn -0.0000 -1.0000 0.0000
vn -0.5135 0.6327 0.5797
vn -0.1801 0.7410 0.6469
vn -0.2206 0.9501 0.2206
vn -0.6162 0.7696 0.1670
vn 0.1766 0.7526 0.6344
vn 0.2337 0.9438 0.2337
vn 0.5578 0.6543 0.5106
vn 0.6230 0.7577 0.1943
vn -0.2337 0.9438 -0.2337
vn -0.6166 0.7625 -0.1959
vn 0.2206 0.9501 -0.2205
vn 0.6233 0.7639 -0.1670
vn -0.1766 0.7526 -0.6344
vn -0.5578 0.6543 -0.5106
vn 0.1801 0.7410 -0.6469
vn 0.5173 0.6310 -0.5781
vn -0.6843 0.0000 0.7292
vn -0.2522 0.0000 0.9677
vn -0.2612 0.3015 0.9170
vn -0.6592 0.2305 0.7158
vn 0.2522 0.0000 0.9677
vn 0.2486 0.2891 0.9245
vn 0.6907 0.0000 0.7231
vn 0.6815 0.2343 0.6933
vn 0.9617 0.0000 0.2743
vn 0.9055 0.3201 0.2785
vn 0.9617 0.0000 -0.2743
vn 0.9150 0.3054 -0.2636
vn 0.6907 0.0000 -0.7231
vn 0.6653 0.2302 -0.7102
vn 0.2522 0.0000 -0.9677
vn 0.2612 0.3015 -0.9170
vn -0.2522 0.0000 -0.9677
vn -0.2486 0.2891 -0.9245
vn -0.6843 0.0000 -0.7292
vn -0.6762 0.2362 -0.6979
vn -0.9592 0.0000 -0.2828
vn -0.9010 0.3270 -0.2850
vn -0.9592 0.0000 0.2828
vn -0.9112 0.3116 0.2693
vn 0.0002 -1.0000 -0.0000
vn -0.0002 -1.0000 0.0000
vn -0.0002 -1.0000 -0.0000
vn 0.0007 -1.0000 -0.0000
vn -0.0008 -1.0000 -0.0000
# 139 vertex normals

vt 0.6003 0.7262 0.0000
vt 0.5582 0.6389 0.0000
vt 0.6109 0.6234 0.0000
vt 0.6526 0.7179 0.0000
vt 0.5993 0.8035 0.0000
vt 0.6500 0.8185 0.0000
vt 0.5562 0.8766 0.0000
vt 0.5948 0.9133 0.0000
vt 0.4825 0.9243 0.0000
vt 0.5021 0.9743 0.0000
vt 0.5700 0.0768 0.0000
vt 0.5104 0.0711 0.0000
vt 0.5055 0.0181 0.0000
vt 0.5871 0.0262 0.0000
vt 0.6663 0.0744 0.0000
vt 0.6300 0.1143 0.0000
vt 0.6809 0.1825 0.0000
vt 0.7294 0.1587 0.0000
vt 0.6986 0.2454 0.0000
vt 0.7522 0.2414 0.0000
vt 0.7406 0.3291 0.0000
vt 0.6893 0.3132 0.0000
vt 0.6509 0.3811 0.0000
vt 0.6950 0.4117 0.0000
vt 0.3860 0.1177 0.0000
vt 0.3737 0.0631 0.0000
vt 0.6218 0.4825 0.0000
vt 0.5750 0.4533 0.0000
vt 0.3153 0.1284 0.0000
vt 0.3107 0.0726 0.0000
vt 0.2246 0.1247 0.0000
vt 0.2150 0.0717 0.0000
vt 0.1602 0.1452 0.0000
vt 0.1335 0.0986 0.0000
vt 0.1055 0.1916 0.0000
vt 0.0641 0.1569 0.0000
vt 0.0715 0.2501 0.0000
vt 0.0208 0.2310 0.0000
vt 0.0602 0.3065 0.0000
vt 0.0062 0.3059 0.0000
vt 0.0732 0.3806 0.0000
vt 0.0229 0.3995 0.0000
vt 0.1151 0.4456 0.0000
vt 0.0744 0.4801 0.0000
vt 0.2245 0.5250 0.0000
vt 0.1795 0.5562 0.0000
vt 0.5902 0.5545 0.0000
vt 0.5350 0.5499 0.0000
vt 0.2587 0.6190 0.0000
vt 0.2032 0.6189 0.0000
vt 0.2124 0.7181 0.0000
vt 0.1601 0.7085 0.0000
vt 0.2069 0.7836 0.0000
vt 0.1554 0.7957 0.0000
vt 0.2478 0.8617 0.0000
vt 0.2059 0.8952 0.0000
vt 0.3130 0.9187 0.0000
vt 0.2882 0.9660 0.0000
vt 0.3931 0.9394 0.0000
vt 0.3906 0.9929 0.0000
vt 0.5359 0.7374 0.0000
vt 0.4926 0.6606 0.0000
vt 0.5367 0.7836 0.0000
vt 0.5093 0.8297 0.0000
vt 0.4585 0.8619 0.0000
vt 0.5472 0.1392 0.0000
vt 0.5170 0.1366 0.0000
vt 0.5842 0.1636 0.0000
vt 0.6208 0.2128 0.0000
vt 0.6323 0.2517 0.0000
vt 0.6255 0.2946 0.0000
vt 0.5967 0.3424 0.0000
vt 0.4027 0.1865 0.0000
vt 0.5163 0.4145 0.0000
vt 0.3192 0.1997 0.0000
vt 0.2351 0.1911 0.0000
vt 0.1945 0.2026 0.0000
vt 0.1580 0.2336 0.0000
vt 0.1347 0.2740 0.0000
vt 0.1274 0.3083 0.0000
vt 0.1361 0.3586 0.0000
vt 0.1654 0.4030 0.0000
vt 0.2816 0.4831 0.0000
vt 0.4635 0.5445 0.0000
vt 0.3308 0.6203 0.0000
vt 0.2772 0.7316 0.0000
vt 0.2702 0.7673 0.0000
vt 0.2990 0.8187 0.0000
vt 0.3428 0.8597 0.0000
vt 0.3956 0.8727 0.0000
vt 0.9631 0.0422 0.0000
vt 0.9823 0.0668 0.0000
vt 0.9906 0.0925 0.0000
vt 0.9871 0.1263 0.0000
vt 0.9351 0.0243 0.0000
vt 0.9694 0.1559 0.0000
vt 0.9040 0.0187 0.0000
vt 0.9278 0.1862 0.0000
vt 0.7136 0.0915 0.0000
vt 0.7169 0.0617 0.0000
vt 0.7358 0.0295 0.0000
vt 0.7622 0.0108 0.0000
vt 0.8397 0.3551 0.0000
vt 0.8046 0.3354 0.0000
vt 0.9151 0.3447 0.0000
vt 0.8805 0.3584 0.0000
vt 0.7825 0.3027 0.0000
vt 0.9395 0.3157 0.0000
vt 0.7794 0.2671 0.0000
vt 0.9528 0.2785 0.0000
vt 0.7944 0.2313 0.0000
vt 0.9448 0.2480 0.0000
vt 0.8004 0.2009 0.0000
vt 0.9189 0.2160 0.0000
vt 0.7908 0.0074 0.0000
vt 0.7237 0.1215 0.0000
vt 0.8423 0.0248 0.0000
vt 0.7462 0.1487 0.0000
vt 0.7813 0.1708 0.0000
vt 0.8680 0.0261 0.0000
vt 0.7067 0.6162 0.0000
vt 0.6982 0.5860 0.0000
vt 0.7312 0.5902 0.0000
vt 0.7375 0.6227 0.0000
vt 0.6970 0.5479 0.0000
vt 0.7296 0.5415 0.0000
vt 0.7036 0.5172 0.0000
vt 0.7338 0.5087 0.0000
vt 0.7800 0.5886 0.0000
vt 0.7758 0.6215 0.0000
vt 0.7784 0.5399 0.0000
vt 0.7720 0.5074 0.0000
vt 0.8126 0.5822 0.0000
vt 0.8061 0.6129 0.0000
vt 0.8113 0.5442 0.0000
vt 0.8028 0.5140 0.0000
vt 0.6589 0.6664 0.0000
vt 0.6247 0.6099 0.0000
vt 0.6704 0.5964 0.0000
vt 0.6886 0.6353 0.0000
vt 0.6221 0.5287 0.0000
vt 0.6686 0.5393 0.0000
vt 0.6528 0.4702 0.0000
vt 0.6843 0.4993 0.0000
vt 0.7097 0.4343 0.0000
vt 0.7236 0.4797 0.0000
vt 0.7912 0.4317 0.0000
vt 0.7803 0.4778 0.0000
vt 0.8504 0.4637 0.0000
vt 0.8208 0.4948 0.0000
vt 0.8848 0.5201 0.0000
vt 0.8391 0.5337 0.0000
vt 0.8875 0.6013 0.0000
vt 0.8410 0.5908 0.0000
vt 0.8571 0.6599 0.0000
vt 0.8254 0.6309 0.0000
vt 0.7999 0.6963 0.0000
vt 0.7859 0.6510 0.0000
vt 0.7184 0.6989 0.0000
vt 0.7294 0.6529 0.0000
vt 0.9852 0.1902 0.0000
vt 0.9515 0.2384 0.0000
vt 0.9359 0.2275 0.0000
vt 0.9696 0.1793 0.0000
vt 0.9556 0.1780 0.0000
vt 0.9299 0.2147 0.0000
vt 0.9307 0.1999 0.0000
vt 0.9420 0.1838 0.0000
vt 0.9911 0.2029 0.0000
vt 0.9655 0.2396 0.0000
vt 0.9901 0.2176 0.0000
vt 0.9789 0.2336 0.0000
# 172 texture coords

g ColorSpot2
usemtl ColorSpot2
s 1
f 1/1/1 2/2/2 3/3/3 4/4/4 
f 5/5/5 1/1/1 4/4/4 6/6/6 
f 7/7/7 5/5/5 6/6/6 8/8/8 
f 9/9/9 7/7/7 8/8/8 10/10/10 
f 11/11/11 12/12/12 13/13/13 14/14/14 
f 15/15/15 16/16/16 11/11/11 14/14/14 
f 17/17/17 16/16/16 15/15/15 18/18/18 
f 19/19/19 17/17/17 18/18/18 20/20/20 
f 21/21/21 22/22/22 19/19/19 20/20/20 
f 23/23/23 22/22/22 21/21/21 24/24/24 
f 12/12/12 25/25/25 26/26/26 13/13/13 
f 27/27/27 28/28/28 23/23/23 24/24/24 
f 25/25/25 29/29/29 30/30/30 26/26/26 
f 30/30/30 29/29/29 31/31/31 32/32/32 
f 31/31/31 33/33/33 34/34/34 32/32/32 
f 33/33/33 35/35/35 36/36/36 34/34/34 
f 35/35/35 37/37/37 38/38/38 36/36/36 
f 38/38/38 37/37/37 39/39/39 40/40/40 
f 39/39/39 41/41/41 42/42/42 40/40/40 
f 41/41/41 43/43/43 44/44/44 42/42/42 
f 43/43/43 45/45/45 46/46/46 44/44/44 
f 47/47/47 48/48/48 28/28/28 27/27/27 
f 45/45/45 49/49/49 50/50/50 46/46/46 
f 2/2/2 48/48/48 47/47/47 3/3/3 
f 50/50/50 49/49/49 51/51/51 52/52/52 
f 52/52/52 51/51/51 53/53/53 54/54/54 
f 53/53/53 55/55/55 56/56/56 54/54/54 
f 56/56/56 55/55/55 57/57/57 58/58/58 
f 57/57/57 59/59/59 60/60/60 58/58/58 
f 59/59/59 9/9/9 10/10/10 60/60/60 
f 1/1/1 61/61/61 62/62/62 2/2/2 
f 5/5/5 63/63/63 61/61/61 1/1/1 
f 7/7/7 64/64/64 63/63/63 5/5/5 
f 9/9/9 65/65/65 64/64/64 7/7/7 
f 11/11/11 66/66/66 67/67/67 12/12/12 
f 16/16/16 68/68/68 66/66/66 11/11/11 
f 17/17/17 69/69/69 68/68/68 16/16/16 
f 19/19/19 70/70/70 69/69/69 17/17/17 
f 22/22/22 71/71/71 70/70/70 19/19/19 
f 23/23/23 72/72/72 71/71/71 22/22/22 
f 12/12/12 67/67/67 73/73/73 25/25/25 
f 28/28/28 74/74/74 72/72/72 23/23/23 
f 25/25/25 73/73/73 75/75/75 29/29/29 
f 29/29/29 75/75/75 76/76/76 31/31/31 
f 31/31/31 76/76/76 77/77/77 33/33/33 
f 33/33/33 77/77/77 78/78/78 35/35/35 
f 35/35/35 78/78/78 79/79/79 37/37/37 
f 37/37/37 79/79/79 80/80/80 39/39/39 
f 39/39/39 80/80/80 81/81/81 41/41/41 
f 41/41/41 81/81/81 82/82/82 43/43/43 
f 43/43/43 82/82/82 83/83/83 45/45/45 
f 48/48/48 84/84/84 74/74/74 28/28/28 
f 45/45/45 83/83/83 85/85/85 49/49/49 
f 2/2/2 62/62/62 84/84/84 48/48/48 
f 49/49/49 85/85/85 86/86/86 51/51/51 
f 51/51/51 86/86/86 87/87/87 53/53/53 
f 53/53/53 87/87/87 88/88/88 55/55/55 
f 55/55/55 88/88/88 89/89/89 57/57/57 
f 57/57/57 89/89/89 90/90/90 59/59/59 
f 59/59/59 90/90/90 65/65/65 9/9/9 
f 70/70/70 66/66/66 68/68/68 69/69/69 
f 67/67/67 66/66/66 70/70/70 71/71/71 
f 67/67/67 71/71/71 72/72/72 73/73/73 
f 73/73/73 72/72/72 74/74/74 75/75/75 
f 80/80/80 79/79/79 78/78/78 81/81/81 
f 81/81/81 78/78/78 77/77/77 82/82/82 
f 82/82/82 77/77/77 76/76/76 83/83/83 
f 89/89/89 64/64/64 65/65/65 90/90/90 
f 89/89/89 88/88/88 63/63/63 64/64/64 
f 88/88/88 87/87/87 61/61/61 63/63/63 
f 87/87/87 86/86/86 62/62/62 61/61/61 
f 85/85/85 84/84/84 62/62/62 86/86/86 
f 83/83/83 74/74/74 84/84/84 85/85/85 
f 83/83/83 76/76/76 75/75/75 74/74/74 
s 2
f 36/91/91 38/92/91 40/93/91 42/94/91 
f 34/95/91 36/91/91 42/94/91 44/96/91 
f 32/97/91 34/95/91 44/96/91 46/98/92 
f 20/99/93 18/100/92 15/101/92 14/102/92 
f 10/103/91 8/104/91 58/105/91 60/106/91 
f 8/104/91 6/107/91 56/108/91 58/105/91 
f 4/109/91 54/110/91 56/108/91 6/107/91 
f 3/111/94 52/112/93 54/110/91 4/109/91 
f 3/111/94 47/113/92 50/114/94 52/112/93 
f 20/99/93 14/102/92 13/115/91 21/116/93 
f 13/115/91 26/117/91 24/118/91 21/116/93 
f 27/119/91 24/118/91 26/117/91 30/120/91 
f 47/113/92 27/119/91 46/98/92 50/114/94 
f 30/120/91 32/97/91 46/98/92 27/119/91 
s 1
f 91/121/95 92/122/96 93/123/97 94/124/98 
f 92/122/96 95/125/99 96/126/100 93/123/97 
f 95/125/99 97/127/101 98/128/102 96/126/100 
f 94/124/98 93/123/97 99/129/103 100/130/104 
f 93/123/97 96/126/100 101/131/105 99/129/103 
f 96/126/100 98/128/102 102/132/106 101/131/105 
f 100/130/104 99/129/103 103/133/107 104/134/108 
f 99/129/103 101/131/105 105/135/109 103/133/107 
f 101/131/105 102/132/106 106/136/110 105/135/109 
f 107/137/111 108/138/112 109/139/113 110/140/114 
f 108/138/112 111/141/115 112/142/116 109/139/113 
f 111/141/115 113/143/117 114/144/118 112/142/116 
f 110/140/114 109/139/113 92/122/96 91/121/95 
f 109/139/113 112/142/116 95/125/99 92/122/96 
f 112/142/116 114/144/118 97/127/101 95/125/99 
f 113/143/117 115/145/119 116/146/120 114/144/118 
f 115/145/119 117/147/121 118/148/122 116/146/120 
f 117/147/121 119/149/123 120/150/124 118/148/122 
f 114/144/118 116/146/120 98/128/102 97/127/101 
f 116/146/120 118/148/122 102/132/106 98/128/102 
f 118/148/122 120/150/124 106/136/110 102/132/106 
f 119/149/123 121/151/125 122/152/126 120/150/124 
f 121/151/125 123/153/127 124/154/128 122/152/126 
f 123/153/127 125/155/129 126/156/130 124/154/128 
f 120/150/124 122/152/126 105/135/109 106/136/110 
f 122/152/126 124/154/128 103/133/107 105/135/109 
f 124/154/128 126/156/130 104/134/108 103/133/107 
f 125/155/129 127/157/131 128/158/132 126/156/130 
f 127/157/131 129/159/133 130/160/134 128/158/132 
f 129/159/133 107/137/111 110/140/114 130/160/134 
f 126/156/130 128/158/132 100/130/104 104/134/108 
f 128/158/132 130/160/134 94/124/98 100/130/104 
f 130/160/134 110/140/114 91/121/95 94/124/98 
s 2
f 121/161/135 111/162/135 108/163/136 123/164/136 
f 125/165/137 107/166/136 129/167/138 127/168/138 
f 107/166/136 125/165/137 123/164/136 108/163/136 
f 119/169/135 113/170/135 111/162/135 121/161/135 
f 113/170/135 119/169/135 117/171/139 115/172/139 
# 126 polygons

